# xmcd
#
# Track frame offsets:
#	150
#	9647
#	25030
#	38845
#	49107
#	67547
#	83705
#	100557
#	111440
#	124937
#	134872
#	155735
#	166600
#	182295
#
# Disc length: 2641 seconds
#
# Revision: 0
# Processed by: cddbd v1.5.1PL2 Copyright (c) Steve Scherf et al.
# Submitted via: dBpowerAMP V4.0
#
DISCID=a80a4f0e
DTITLE=Paul Williams and The Victory Trio - When the Morning Comes
DYEAR=2005
DGENRE=Bluegrass
TTITLE0=I'm A Little Closer To My Lord
TTITLE1=I Know, I Know
TTITLE2=I Call It Home
TTITLE3=I Could Sing About Heaven
TTITLE4=Do Something For Jesus Today
TTITLE5=He's Answered Each Prayer
TTITLE6=That Healing Fountain
TTITLE7=Are You Washed In The Blood
TTITLE8=As Soon As I Touch Calvary
TTITLE9=Keep On Believing And Keep On Loving
TTITLE10=In Heaven She'll Live On And On
TTITLE11=When The Morning Comes
TTITLE12=When I Get Home
TTITLE13=When They Ring Those Golden Bells
EXTD=
EXTT0=
EXTT1=
EXTT2=
EXTT3=
EXTT4=
EXTT5=
EXTT6=
EXTT7=
EXTT8=
EXTT9=
EXTT10=
EXTT11=
EXTT12=
EXTT13=
PLAYORDER=
